<svg version="1.1" viewBox="288.56279809220985 206.336 438.4864864864865 246.636" xmlns="http://www.w3.org/2000/svg" style="max-height: 500px" width="438.4864864864865" height="246.636"><path fill-rule="evenodd" fill="#000000" stroke="none" d="M 0 403.001 L 0 806.002 507.250 805.751 L 1014.500 805.500 1014.751 402.750 L 1015.002 0 507.501 0 L 0 0 0 403.001 M 0.495 403.500 C 0.495 625.150, 0.610 715.676, 0.750 604.669 C 0.890 493.661, 0.890 312.311, 0.750 201.669 C 0.610 91.026, 0.495 181.850, 0.495 403.500 M 288 329.500 L 288 453 507.500 453 L 727 453 727 329.500 L 727 206 507.500 206 L 288 206 288 329.500 M 297.126 264.919 C 293.781 266.994, 307.008 284.239, 316.500 290.180 C 318.700 291.557, 323.650 293.993, 327.500 295.592 L 334.500 298.500 406.108 298.787 L 477.715 299.075 478.248 293.199 C 478.541 289.968, 479.578 285.789, 480.551 283.912 L 482.322 280.500 484.036 290.500 C 485.670 300.032, 489.555 311.445, 493.966 319.675 C 495.085 321.762, 496 323.815, 496 324.235 C 496 324.656, 467.200 325, 432 325 C 388.979 325, 368 325.336, 368 326.025 C 368 328.445, 376.576 340.326, 381.711 345.019 C 384.784 347.827, 390.441 351.708, 394.284 353.643 C 406.464 359.777, 408.625 359.963, 467.750 359.983 C 497.038 359.992, 521 359.755, 521 359.456 C 521 359.156, 518.747 355.935, 515.992 352.297 C 513.238 348.658, 511.168 345.499, 511.391 345.275 C 511.958 344.708, 522.140 350.466, 530.500 356.081 C 538.082 361.174, 541.495 364.512, 544.818 370.081 C 547.068 373.853, 550.073 383.973, 549.323 385.250 C 549.080 385.663, 527.084 386, 500.441 386 C 465.374 386, 452 386.309, 452 387.119 C 452 387.735, 453.578 390.836, 455.506 394.010 C 460.117 401.600, 470.172 410.898, 477.571 414.413 C 489.691 420.170, 490.238 420.245, 523.750 420.735 L 555 421.191 555 412.596 C 555 407.868, 555.376 404, 555.836 404 C 556.296 404, 559.109 408.140, 562.086 413.201 C 568.460 424.033, 576.553 432.733, 583.511 436.234 C 594.442 441.734, 610.105 444.439, 640.500 446.078 C 671.251 447.737, 681.304 446.689, 694.500 440.448 C 706.663 434.695, 715.873 423.265, 719.469 409.458 C 720.311 406.225, 721 402.813, 721 401.877 C 721 398.360, 714.902 402.336, 707.774 410.500 C 695.697 424.332, 694.649 425.285, 688.505 428.040 C 678.847 432.369, 670.603 433.503, 649 433.472 C 632.044 433.447, 628.396 433.151, 621.036 431.203 C 604.982 426.952, 592.360 419.052, 584.377 408.258 C 575.141 395.770, 549.090 345.657, 531.478 306.500 C 520.810 282.784, 515.425 275.919, 502.465 269.515 C 496.753 266.693, 493.513 265.831, 485.485 264.998 C 473.414 263.747, 299.134 263.674, 297.126 264.919"/><path fill-rule="evenodd" fill="#fe2725" stroke="none" d="M 613.474 212.608 C 611.838 213.423, 608.738 215.595, 606.584 217.434 L 602.667 220.779 604.556 224.640 C 606.508 228.627, 606.686 232.743, 605.854 254.500 C 605.559 262.211, 605.817 264.073, 607.658 267.500 C 611.024 273.769, 617.510 278.517, 625.250 280.377 C 630.085 281.539, 628.201 283, 621.866 283 C 606.697 283, 598.499 275.974, 596.049 260.871 C 595.480 257.367, 595.012 252.219, 595.008 249.432 C 595 244.529, 592.953 235.962, 591.107 233.108 C 590.359 231.952, 589.724 232.049, 587.353 233.683 C 583.161 236.573, 576.591 239.409, 567 242.470 C 550.277 247.806, 543.802 250.361, 539.971 253.136 L 536.082 255.953 537.420 260.227 C 539.287 266.189, 544.825 280.841, 548.106 288.500 C 549.416 291.557, 557 310.393, 557 310.589 C 557 310.684, 561.837 311.087, 567.750 311.485 C 587.168 312.794, 606.753 319.476, 618.215 328.704 C 620.809 330.792, 624.435 333.725, 626.274 335.223 L 629.617 337.945 637.713 334.445 C 642.166 332.520, 649.339 330.192, 653.654 329.273 C 657.969 328.353, 661.831 327.128, 662.235 326.550 C 662.639 325.973, 662.976 323.546, 662.985 321.157 C 663.004 315.656, 666.312 299.314, 668.968 291.592 C 671.865 283.173, 671.655 279.002, 668.168 275.661 C 665.755 273.349, 664.019 272.803, 656.418 271.964 C 636.887 269.807, 626.057 266.862, 621.358 262.430 C 617.106 258.420, 617.052 255.731, 621 244.338 C 624.798 233.377, 624.992 225.669, 621.649 218.500 C 618.458 211.655, 617.203 210.751, 613.474 212.608 M 652.750 287.080 C 650.027 288.666, 650.376 294.833, 653.250 295.901 C 655.897 296.885, 658.017 296.320, 659.750 294.169 C 661.512 291.982, 661.309 290.309, 659 288 C 656.778 285.778, 655.347 285.567, 652.750 287.080 M 380.323 299.750 C 398.375 299.902, 427.625 299.902, 445.323 299.749 C 463.020 299.596, 448.250 299.471, 412.500 299.472 C 376.750 299.472, 362.270 299.597, 380.323 299.750 M 572 330.285 C 568.069 331.364, 567.534 331.835, 567.770 334.010 C 568.398 339.812, 594.990 391.071, 600.917 397.904 C 602.062 399.225, 603 400.579, 603 400.913 C 603 402.302, 611.650 410.291, 615.010 412.005 C 620.294 414.701, 630.216 417.677, 640.500 419.652 C 647.377 420.973, 655.078 421.395, 673.150 421.440 C 686.158 421.473, 696.594 421.837, 696.341 422.250 C 695.144 424.205, 697.459 422.686, 699.356 420.271 C 706.443 411.252, 714.775 402.703, 717.652 401.501 C 721.732 399.796, 721.359 398.339, 715.661 393.727 C 704.723 384.874, 692.961 384.741, 682.894 393.358 C 679.225 396.499, 673.404 398.738, 672.155 397.489 C 671.866 397.200, 673.218 395.284, 675.158 393.232 C 684.086 383.789, 685.118 379.472, 679.307 375.881 C 674.418 372.859, 667.549 373.067, 659 376.497 C 651.506 379.502, 643 380.904, 643 379.134 C 643 378.504, 646.023 375.854, 649.717 373.245 C 653.412 370.635, 658.224 366.869, 660.411 364.874 L 664.387 361.249 663.307 353.072 C 662.714 348.574, 661.913 344.581, 661.528 344.197 C 661.143 343.814, 656.705 343.500, 651.664 343.500 C 643.403 343.500, 641.825 343.820, 635.652 346.743 L 628.804 349.987 623.652 345.616 C 616.113 339.220, 608.131 334.411, 600.887 331.899 C 593.233 329.245, 578.739 328.435, 572 330.285 M 477.318 385.749 C 489.868 385.908, 510.118 385.908, 522.318 385.749 C 534.518 385.590, 524.250 385.460, 499.500 385.460 C 474.750 385.460, 464.768 385.590, 477.318 385.749"/></svg>